<?xml version="1.0" standalone="no"?>
<!DOCTYPE svg PUBLIC "-//W3C//DTD SVG 20010904//EN"
 "http://www.w3.org/TR/2001/REC-SVG-20010904/DTD/svg10.dtd">
<svg version="1.0" xmlns="http://www.w3.org/2000/svg"
 width="500.000000pt" height="500.000000pt" viewBox="0 0 500.000000 500.000000"
 preserveAspectRatio="xMidYMid meet">
<metadata>
Created by potrace 1.14, written by Peter Selinger 2001-2017
</metadata>
<g transform="translate(0.000000,500.000000) scale(0.100000,-0.100000)"
fill="#000000" stroke="none">
<path d="M2257 4634 c-1 -1 -69 -5 -152 -8 -82 -4 -168 -8 -190 -11 -45 -5
-119 -13 -185 -21 -155 -18 -406 -79 -554 -134 -190 -72 -400 -235 -509 -399
-102 -151 -184 -356 -223 -556 -1 -5 -6 -35 -13 -65 -6 -30 -13 -68 -15 -85
-3 -16 -7 -43 -10 -60 -2 -16 -8 -58 -11 -92 -4 -35 -8 -75 -10 -90 -12 -93
-20 -340 -20 -613 0 -478 18 -712 75 -990 100 -477 300 -764 653 -934 78 -38
150 -64 322 -116 25 -7 132 -29 220 -45 30 -5 104 -15 160 -21 28 -2 64 -7 80
-9 205 -28 1006 -27 1255 1 167 19 241 30 365 55 96 20 309 84 330 99 6 4 29
14 53 23 57 23 185 101 247 151 109 88 223 232 288 361 55 111 128 337 151
470 18 98 40 263 51 375 24 250 24 922 -1 1155 -33 320 -65 483 -131 674 -102
297 -279 511 -538 651 -109 59 -340 139 -447 155 -23 4 -45 8 -48 10 -3 2 -30
6 -60 10 -30 4 -57 8 -60 10 -3 2 -33 6 -67 10 -34 3 -70 7 -80 9 -22 5 -132
14 -263 22 -87 6 -658 13 -663 8z m768 -337 c17 -3 62 -8 100 -12 93 -8 130
-13 190 -25 28 -5 61 -11 75 -14 156 -26 350 -101 464 -177 105 -71 208 -184
259 -284 l15 -31 -1618 1 c-890 0 -1622 3 -1626 7 -11 12 73 132 141 202 113
117 271 201 480 257 88 23 90 23 155 34 25 4 54 9 65 11 11 2 43 7 70 10 28 3
64 7 80 9 17 3 75 7 130 11 55 3 102 8 104 10 6 6 880 -4 916 -9z m1236 -961
c0 -6 2 -18 4 -26 9 -43 25 -164 30 -220 26 -309 26 -965 1 -1165 -3 -16 -7
-64 -11 -105 -4 -41 -8 -77 -10 -80 -2 -3 -6 -30 -10 -59 -9 -78 -59 -266 -95
-351 -154 -371 -456 -557 -1000 -615 -30 -4 -68 -8 -85 -10 -128 -18 -744 -25
-995 -12 -472 26 -775 107 -981 264 -207 156 -335 427 -384 808 -4 28 -8 64
-11 80 -5 39 -12 134 -20 265 -8 131 -8 677 0 785 13 178 18 234 32 329 8 55
14 105 14 112 0 17 3520 17 3521 0z"/>
<path d="M1477 3096 c-90 -33 -150 -123 -141 -213 7 -75 39 -114 358 -432
l315 -314 -313 -313 c-173 -172 -324 -330 -336 -351 -31 -53 -31 -136 1 -194
51 -92 169 -134 264 -94 51 22 836 800 867 860 26 49 27 138 4 184 -21 41
-817 836 -858 857 -42 22 -115 27 -161 10z"/>
<path d="M2303 1569 c-134 -28 -206 -171 -147 -294 23 -49 85 -100 136 -111
24 -5 317 -9 668 -8 695 1 666 -2 734 69 92 94 67 253 -51 322 l-47 27 -633 1
c-347 0 -645 -3 -660 -6z"/>
</g>
</svg>
